<svg width="400" height="300" xmlns="http://www.w3.org/2000/svg">
<g transform="translate(0,0)">
<rect width="400" height="300" fill="white" stroke="#ccc"/>
<text x="200" y="22" text-anchor="middle" font-size="12" font-family="sans-serif" font-weight="bold">Coordinate 122</text>
<rect x="60.0" y="260.0" width="5.8" height="0.0" fill="steelblue"/>
<rect x="66.4" y="260.0" width="5.8" height="0.0" fill="steelblue"/>
<rect x="72.8" y="259.9" width="5.8" height="0.1" fill="steelblue"/>
<rect x="79.2" y="259.7" width="5.8" height="0.3" fill="steelblue"/>
<rect x="85.6" y="259.3" width="5.8" height="0.7" fill="steelblue"/>
<rect x="92.0" y="257.6" width="5.8" height="2.4" fill="steelblue"/>
<rect x="98.4" y="254.7" width="5.8" height="5.3" fill="steelblue"/>
<rect x="104.8" y="249.5" width="5.8" height="10.5" fill="steelblue"/>
<rect x="111.2" y="239.0" width="5.8" height="21.0" fill="steelblue"/>
<rect x="117.6" y="223.1" width="5.8" height="36.9" fill="steelblue"/>
<rect x="124.0" y="201.6" width="5.8" height="58.4" fill="steelblue"/>
<rect x="130.4" y="170.8" width="5.8" height="89.2" fill="steelblue"/>
<rect x="136.8" y="136.9" width="5.8" height="123.1" fill="steelblue"/>
<rect x="143.2" y="97.3" width="5.8" height="162.7" fill="steelblue"/>
<rect x="149.6" y="67.1" width="5.8" height="192.9" fill="steelblue"/>
<rect x="156.0" y="39.4" width="5.8" height="220.6" fill="steelblue"/>
<rect x="162.4" y="35.0" width="5.8" height="225.0" fill="steelblue"/>
<rect x="168.8" y="38.3" width="5.8" height="221.7" fill="steelblue"/>
<rect x="175.2" y="61.1" width="5.8" height="198.9" fill="steelblue"/>
<rect x="181.6" y="97.9" width="5.8" height="162.1" fill="steelblue"/>
<rect x="188.0" y="138.1" width="5.8" height="121.9" fill="steelblue"/>
<rect x="194.4" y="171.5" width="5.8" height="88.5" fill="steelblue"/>
<rect x="200.8" y="200.1" width="5.8" height="59.9" fill="steelblue"/>
<rect x="207.2" y="224.1" width="5.8" height="35.9" fill="steelblue"/>
<rect x="213.6" y="240.0" width="5.8" height="20.0" fill="steelblue"/>
<rect x="220.0" y="250.7" width="5.8" height="9.3" fill="steelblue"/>
<rect x="226.4" y="254.7" width="5.8" height="5.3" fill="steelblue"/>
<rect x="232.8" y="258.3" width="5.8" height="1.7" fill="steelblue"/>
<rect x="239.2" y="259.0" width="5.8" height="1.0" fill="steelblue"/>
<rect x="245.6" y="259.6" width="5.8" height="0.4" fill="steelblue"/>
<rect x="252.0" y="259.9" width="5.8" height="0.1" fill="steelblue"/>
<rect x="258.4" y="259.9" width="5.8" height="0.1" fill="steelblue"/>
<rect x="264.8" y="260.0" width="5.8" height="0.0" fill="steelblue"/>
<rect x="271.2" y="260.0" width="5.8" height="0.0" fill="steelblue"/>
<rect x="277.6" y="259.9" width="5.8" height="0.1" fill="steelblue"/>
<rect x="284.0" y="259.9" width="5.8" height="0.1" fill="steelblue"/>
<rect x="290.4" y="260.0" width="5.8" height="0.0" fill="steelblue"/>
<rect x="296.8" y="260.0" width="5.8" height="0.0" fill="steelblue"/>
<rect x="303.2" y="260.0" width="5.8" height="0.0" fill="steelblue"/>
<rect x="309.6" y="260.0" width="5.8" height="0.0" fill="steelblue"/>
<rect x="316.0" y="260.0" width="5.8" height="0.0" fill="steelblue"/>
<rect x="322.4" y="260.0" width="5.8" height="0.0" fill="steelblue"/>
<rect x="328.8" y="260.0" width="5.8" height="0.0" fill="steelblue"/>
<rect x="335.2" y="260.0" width="5.8" height="0.0" fill="steelblue"/>
<rect x="341.6" y="260.0" width="5.8" height="0.0" fill="steelblue"/>
<rect x="348.0" y="260.0" width="5.8" height="0.0" fill="steelblue"/>
<rect x="354.4" y="260.0" width="5.8" height="0.0" fill="steelblue"/>
<rect x="360.8" y="260.0" width="5.8" height="0.0" fill="steelblue"/>
<rect x="367.2" y="260.0" width="5.8" height="0.0" fill="steelblue"/>
<rect x="373.6" y="260.0" width="5.8" height="0.0" fill="steelblue"/>
<line x1="258.5" y1="35" x2="258.5" y2="260" stroke="black" stroke-width="1" stroke-dasharray="1,2"/>
<line x1="167.7" y1="35" x2="167.7" y2="260" stroke="red" stroke-width="1.5" stroke-dasharray="4,3"/>
<line x1="167.8" y1="35" x2="167.8" y2="260" stroke="#9c27b0" stroke-width="1.5" stroke-dasharray="2,2"/>
<line x1="60" y1="260" x2="380" y2="260" stroke="black"/>
<line x1="60" y1="35" x2="60" y2="260" stroke="black"/>
<text x="60" y="295" font-size="10" font-family="sans-serif">-4.504</text>
<text x="380" y="295" text-anchor="end" font-size="10" font-family="sans-serif">2.758</text>
<text x="5" y="45" font-size="10" font-family="sans-serif">10839</text>
<text x="395" y="30" text-anchor="end" font-size="10" font-family="sans-serif"><tspan fill="red">μ=-2.0592</tspan>  <tspan fill="#9c27b0">med=-2.0575</tspan>  <tspan fill="#666">σ=0.5370</tspan>  <tspan fill="#e65100">KS=0.0374</tspan></text>
</g>
<polyline fill="none" stroke="red" stroke-width="2" opacity="0.8" points="60.0,260.0 61.6,260.0 63.2,260.0 64.8,260.0 66.4,260.0 68.0,260.0 69.6,260.0 71.3,260.0 72.9,260.0 74.5,260.0 76.1,260.0 77.7,260.0 79.3,260.0 80.9,260.0 82.5,260.0 84.1,260.0 85.7,259.9 87.3,259.9 88.9,259.9 90.6,259.9 92.2,259.9 93.8,259.9 95.4,259.9 97.0,259.9 98.6,259.8 100.2,259.8 101.8,259.8 103.4,259.8 105.0,259.7 106.6,259.7 108.2,259.6 109.8,259.6 111.5,259.5 113.1,259.5 114.7,259.4 116.3,259.3 117.9,259.3 119.5,259.2 121.1,259.1 122.7,259.0 124.3,258.8 125.9,258.7 127.5,258.5 129.1,258.4 130.8,258.2 132.4,258.0 134.0,257.8 135.6,257.5 137.2,257.3 138.8,257.0 140.4,256.7 142.0,256.3 143.6,256.0 145.2,255.6 146.8,255.1 148.4,254.7 150.1,254.2 151.7,253.6 153.3,253.0 154.9,252.4 156.5,251.7 158.1,251.0 159.7,250.2 161.3,249.4 162.9,248.5 164.5,247.6 166.1,246.6 167.7,245.6 169.3,244.4 171.0,243.3 172.6,242.0 174.2,240.7 175.8,239.3 177.4,237.9 179.0,236.3 180.6,234.8 182.2,233.1 183.8,231.4 185.4,229.5 187.0,227.7 188.6,225.7 190.3,223.7 191.9,221.6 193.5,219.5 195.1,217.3 196.7,215.0 198.3,212.7 199.9,210.3 201.5,207.8 203.1,205.4 204.7,202.8 206.3,200.3 207.9,197.7 209.5,195.1 211.2,192.4 212.8,189.8 214.4,187.1 216.0,184.4 217.6,181.8 219.2,179.1 220.8,176.5 222.4,173.9 224.0,171.4 225.6,168.9 227.2,166.4 228.8,164.0 230.5,161.7 232.1,159.5 233.7,157.3 235.3,155.3 236.9,153.3 238.5,151.5 240.1,149.7 241.7,148.1 243.3,146.6 244.9,145.3 246.5,144.1 248.1,143.0 249.7,142.1 251.4,141.3 253.0,140.7 254.6,140.2 256.2,139.9 257.8,139.7 259.4,139.8 261.0,139.9 262.6,140.3 264.2,140.7 265.8,141.4 267.4,142.2 269.0,143.1 270.7,144.2 272.3,145.5 273.9,146.9 275.5,148.4 277.1,150.0 278.7,151.7 280.3,153.6 281.9,155.6 283.5,157.7 285.1,159.8 286.7,162.1 288.3,164.4 289.9,166.8 291.6,169.3 293.2,171.8 294.8,174.3 296.4,176.9 298.0,179.6 299.6,182.2 301.2,184.9 302.8,187.5 304.4,190.2 306.0,192.8 307.6,195.5 309.2,198.1 310.9,200.7 312.5,203.2 314.1,205.7 315.7,208.2 317.3,210.6 318.9,213.0 320.5,215.3 322.1,217.6 323.7,219.8 325.3,222.0 326.9,224.0 328.5,226.0 330.2,228.0 331.8,229.8 333.4,231.6 335.0,233.4 336.6,235.0 338.2,236.6 339.8,238.1 341.4,239.5 343.0,240.9 344.6,242.2 346.2,243.4 347.8,244.6 349.4,245.7 351.1,246.8 352.7,247.8 354.3,248.7 355.9,249.6 357.5,250.4 359.1,251.1 360.7,251.8 362.3,252.5 363.9,253.1 365.5,253.7 367.1,254.3 368.7,254.7 370.4,255.2 372.0,255.6 373.6,256.0 375.2,256.4 376.8,256.7 378.4,257.0 380.0,257.3"/>
<circle cx="138.0" cy="257.1" r="3" fill="pink" stroke="#c2185b" stroke-width="1"/>
<circle cx="167.3" cy="245.9" r="3" fill="pink" stroke="#c2185b" stroke-width="1"/>
<circle cx="187.2" cy="227.5" r="3" fill="pink" stroke="#c2185b" stroke-width="1"/>
<circle cx="203.1" cy="205.3" r="3" fill="pink" stroke="#c2185b" stroke-width="1"/>
<circle cx="216.9" cy="182.9" r="3" fill="pink" stroke="#c2185b" stroke-width="1"/>
<circle cx="229.5" cy="163.1" r="3" fill="pink" stroke="#c2185b" stroke-width="1"/>
<circle cx="241.4" cy="148.4" r="3" fill="pink" stroke="#c2185b" stroke-width="1"/>
<circle cx="252.8" cy="140.7" r="3" fill="pink" stroke="#c2185b" stroke-width="1"/>
<circle cx="264.1" cy="140.7" r="3" fill="pink" stroke="#c2185b" stroke-width="1"/>
<circle cx="275.6" cy="148.4" r="3" fill="pink" stroke="#c2185b" stroke-width="1"/>
<circle cx="287.4" cy="163.1" r="3" fill="pink" stroke="#c2185b" stroke-width="1"/>
<circle cx="300.0" cy="182.9" r="3" fill="pink" stroke="#c2185b" stroke-width="1"/>
<circle cx="313.8" cy="205.3" r="3" fill="pink" stroke="#c2185b" stroke-width="1"/>
<circle cx="329.8" cy="227.5" r="3" fill="pink" stroke="#c2185b" stroke-width="1"/>
<circle cx="349.6" cy="245.9" r="3" fill="pink" stroke="#c2185b" stroke-width="1"/>
<circle cx="378.9" cy="257.1" r="3" fill="pink" stroke="#c2185b" stroke-width="1"/>
<circle cx="191.9" cy="221.5" r="5" fill="#ff6600" stroke="black" stroke-width="1.5"/>
<circle cx="238.5" cy="151.4" r="5" fill="#ff6600" stroke="black" stroke-width="1.5"/>
<circle cx="278.4" cy="151.4" r="5" fill="#ff6600" stroke="black" stroke-width="1.5"/>
<circle cx="325.0" cy="221.5" r="5" fill="#ff6600" stroke="black" stroke-width="1.5"/>
</svg>
